<svg width="24" height="24" viewBox="0 0 24 24" fill="none" xmlns="http://www.w3.org/2000/svg">
<path d="M16 2C16.2096 1.99946 16.4142 2.06482 16.5846 2.18685C16.7551 2.30887 16.8829 2.48138 16.95 2.68L17.72 5H20C20.7956 5 21.5587 5.31607 22.1213 5.87868C22.6839 6.44129 23 7.20435 23 8V19C23 19.7957 22.6839 20.5587 22.1213 21.1213C21.5587 21.6839 20.7956 22 20 22H4C3.20435 22 2.44129 21.6839 1.87868 21.1213C1.31607 20.5587 1 19.7957 1 19V8C1 7.20435 1.31607 6.44129 1.87868 5.87868C2.44129 5.31607 3.20435 5 4 5H6.28L7.05 2.68C7.11709 2.48138 7.2449 2.30887 7.41537 2.18685C7.58584 2.06482 7.79036 1.99946 8 2H16ZM15.28 4H8.72L8 6.32C7.93042 6.52698 7.795 6.7055 7.61443 6.82829C7.43386 6.95108 7.21807 7.01139 7 7H4C3.73478 7 3.48043 7.10536 3.29289 7.2929C3.10536 7.48043 3 7.73479 3 8V19C3 19.2652 3.10536 19.5196 3.29289 19.7071C3.48043 19.8946 3.73478 20 4 20H20C20.2652 20 20.5196 19.8946 20.7071 19.7071C20.8946 19.5196 21 19.2652 21 19V8C21 7.73479 20.8946 7.48043 20.7071 7.2929C20.5196 7.10536 20.2652 7 20 7H17C16.7904 7.00054 16.5858 6.93518 16.4154 6.81316C16.2449 6.69114 16.1171 6.51862 16.05 6.32L15.28 4ZM12 7.5C13.4587 7.5 14.8576 8.07947 15.8891 9.11092C16.9205 10.1424 17.5 11.5413 17.5 13C17.4974 14.4579 16.917 15.8553 15.8862 16.8862C14.8553 17.917 13.4579 18.4974 12 18.5C10.5413 18.5 9.14236 17.9205 8.11091 16.8891C7.07946 15.8576 6.5 14.4587 6.5 13C6.5 11.5413 7.07946 10.1424 8.11091 9.11092C9.14236 8.07947 10.5413 7.5 12 7.5ZM12 9.5C11.0717 9.5 10.1815 9.86875 9.52513 10.5251C8.86875 11.1815 8.5 12.0717 8.5 13C8.5 13.9283 8.86875 14.8185 9.52513 15.4749C10.1815 16.1313 11.0717 16.5 12 16.5C12.9283 16.5 13.8185 16.1313 14.4749 15.4749C15.1313 14.8185 15.5 13.9283 15.5 13C15.5 12.0717 15.1313 11.1815 14.4749 10.5251C13.8185 9.86875 12.9283 9.5 12 9.5Z" fill="black"/>
</svg>
