<svg width="48" height="49" viewBox="0 0 48 49" fill="none" xmlns="http://www.w3.org/2000/svg">
<path d="M13.6538 12.8498C12.9316 14.0071 11.7225 14.768 10.372 14.9599C9.61311 15.0677 8.85706 15.1845 8.10399 15.3099C5.99824 15.6608 4.5 17.5133 4.5 19.648V36.5C4.5 38.9853 6.51472 41 9 41H39C41.4853 41 43.5 38.9853 43.5 36.5V19.6481C43.5 17.5133 42.0018 15.6609 39.896 15.31C39.1429 15.1845 38.3869 15.0677 37.628 14.9599C36.2775 14.768 35.0684 14.0071 34.3462 12.8498L32.7038 10.2178C31.9468 9.00473 30.6588 8.21677 29.231 8.1401C27.4991 8.0471 25.7551 8 24 8C22.2449 8 20.5009 8.0471 18.769 8.1401C17.3412 8.21677 16.0532 9.00473 15.2962 10.2178L13.6538 12.8498Z" stroke="#0F172A" stroke-width="1.5" stroke-linecap="round" stroke-linejoin="round"/>
<path d="M33 26C33 30.9706 28.9706 35 24 35C19.0294 35 15 30.9706 15 26C15 21.0294 19.0294 17 24 17C28.9706 17 33 21.0294 33 26Z" stroke="#0F172A" stroke-width="1.5" stroke-linecap="round" stroke-linejoin="round"/>
<path d="M37.5 21.5H37.515V21.515H37.5V21.5Z" stroke="#0F172A" stroke-width="1.5" stroke-linecap="round" stroke-linejoin="round"/>
</svg>
