<svg width="57" height="63" viewBox="0 0 57 63" fill="none" xmlns="http://www.w3.org/2000/svg">
<path fill-rule="evenodd" clip-rule="evenodd" d="M40.5 4.6875C41.0695 4.6875 41.5312 5.10723 41.5312 5.625V14.0625H50.8125C51.382 14.0625 51.8438 14.4822 51.8438 15C51.8438 15.5178 51.382 15.9375 50.8125 15.9375H41.5312V24.375C41.5312 24.8928 41.0695 25.3125 40.5 25.3125C39.9305 25.3125 39.4688 24.8928 39.4688 24.375V15.9375H30.1875C29.618 15.9375 29.1562 15.5178 29.1562 15C29.1562 14.4822 29.618 14.0625 30.1875 14.0625H39.4688V5.625C39.4688 5.10723 39.9305 4.6875 40.5 4.6875Z" fill="#0F172A"/>
<path d="M13.6538 27.3498C12.9316 28.5071 11.7225 29.268 10.372 29.4599C9.61311 29.5677 8.85706 29.6845 8.10399 29.8099C5.99824 30.1608 4.5 32.0133 4.5 34.148V51C4.5 53.4853 6.51472 55.5 9 55.5H39C41.4853 55.5 43.5 53.4853 43.5 51V34.1481C43.5 32.0133 42.0018 30.1609 39.896 29.81C39.1429 29.6845 38.3869 29.5677 37.628 29.4599C36.2775 29.268 35.0684 28.5071 34.3462 27.3498L32.7038 24.7178C31.9468 23.5047 30.6588 22.7168 29.231 22.6401C27.4991 22.5471 25.7551 22.5 24 22.5C22.2449 22.5 20.5009 22.5471 18.769 22.6401C17.3412 22.7168 16.0532 23.5047 15.2962 24.7178L13.6538 27.3498Z" stroke="#0F172A" stroke-width="1.5" stroke-linecap="round" stroke-linejoin="round"/>
<path d="M33 40.5C33 45.4706 28.9706 49.5 24 49.5C19.0294 49.5 15 45.4706 15 40.5C15 35.5294 19.0294 31.5 24 31.5C28.9706 31.5 33 35.5294 33 40.5Z" stroke="#0F172A" stroke-width="1.5" stroke-linecap="round" stroke-linejoin="round"/>
<path d="M37.5 36H37.515V36.015H37.5V36Z" stroke="#0F172A" stroke-width="1.5" stroke-linecap="round" stroke-linejoin="round"/>
</svg>
