<svg width="24" height="25" viewBox="0 0 24 25" xmlns="http://www.w3.org/2000/svg">
<path d="M22 3.5C22.2652 3.5 22.5196 3.60536 22.7071 3.79289C22.8946 3.98043 23 4.23478 23 4.5V20.5C23 21.2956 22.6839 22.0587 22.1213 22.6213C21.5587 23.1839 20.7956 23.5 20 23.5H4C3.20435 23.5 2.44129 23.1839 1.87868 22.6213C1.31607 22.0587 1 21.2956 1 20.5V4.5C1 4.23478 1.10536 3.98043 1.29289 3.79289C1.48043 3.60536 1.73478 3.5 2 3.5H6.5V2.5C6.5 2.23478 6.60536 1.98043 6.79289 1.79289C6.98043 1.60536 7.23478 1.5 7.5 1.5C7.76522 1.5 8.01957 1.60536 8.20711 1.79289C8.39464 1.98043 8.5 2.23478 8.5 2.5V3.5H15.5V2.5C15.5 2.23478 15.6054 1.98043 15.7929 1.79289C15.9804 1.60536 16.2348 1.5 16.5 1.5C16.7652 1.5 17.0196 1.60536 17.2071 1.79289C17.3946 1.98043 17.5 2.23478 17.5 2.5V3.5H22ZM6.5 5.5H3V9.5H21V5.5H17.5V6.5C17.5 6.76522 17.3946 7.01957 17.2071 7.20711C17.0196 7.39464 16.7652 7.5 16.5 7.5C16.2348 7.5 15.9804 7.39464 15.7929 7.20711C15.6054 7.01957 15.5 6.76522 15.5 6.5V5.5H8.5V6.5C8.5 6.76522 8.39464 7.01957 8.20711 7.20711C8.01957 7.39464 7.76522 7.5 7.5 7.5C7.23478 7.5 6.98043 7.39464 6.79289 7.20711C6.60536 7.01957 6.5 6.76522 6.5 6.5V5.5ZM20 21.5C20.2652 21.5 20.5196 21.3946 20.7071 21.2071C20.8946 21.0196 21 20.7652 21 20.5V11.5H3V20.5C3 20.7652 3.10536 21.0196 3.29289 21.2071C3.48043 21.3946 3.73478 21.5 4 21.5H20ZM18 13.5C18.2652 13.5 18.5196 13.6054 18.7071 13.7929C18.8946 13.9804 19 14.2348 19 14.5V18.5C19 18.7652 18.8946 19.0196 18.7071 19.2071C18.5196 19.3946 18.2652 19.5 18 19.5H14C13.7348 19.5 13.4804 19.3946 13.2929 19.2071C13.1054 19.0196 13 18.7652 13 18.5V14.5C13 14.2348 13.1054 13.9804 13.2929 13.7929C13.4804 13.6054 13.7348 13.5 14 13.5H18ZM17 17.5V15.5H15V17.5H17Z"/>
</svg>
