<svg width="24" height="24" viewBox="0 0 24 24" fill="none" xmlns="http://www.w3.org/2000/svg">
<path d="M17.87 22C17.7089 22.0005 17.5504 21.9592 17.41 21.88L12 19.08L6.59001 21.92C6.43105 21.9959 6.25485 22.0285 6.07925 22.0145C5.90365 22.0004 5.73488 21.9402 5.59001 21.84C5.43486 21.7289 5.31476 21.5756 5.24388 21.3984C5.173 21.2213 5.15431 21.0275 5.19001 20.84L6.19001 14.84L1.80001 10.58C1.66795 10.4492 1.57497 10.2841 1.53152 10.1033C1.48806 9.92259 1.49586 9.7333 1.55402 9.55673C1.61218 9.38016 1.71842 9.2233 1.86079 9.10376C2.00316 8.98422 2.17604 8.90673 2.36001 8.88L8.40001 8L11.1 2.52C11.1819 2.35093 11.3097 2.20834 11.4689 2.10857C11.6281 2.0088 11.8122 1.95589 12 1.95589C12.1879 1.95589 12.3719 2.0088 12.5311 2.10857C12.6903 2.20834 12.8181 2.35093 12.9 2.52L15.6 8L21.6 8.88C21.784 8.90673 21.9569 8.98422 22.0992 9.10376C22.2416 9.2233 22.3478 9.38016 22.406 9.55673C22.4642 9.7333 22.472 9.92259 22.4285 10.1033C22.3851 10.2841 22.2921 10.4492 22.16 10.58L17.78 14.85L18.78 20.85C18.805 20.9948 18.7978 21.1433 18.7589 21.285C18.7199 21.4267 18.6502 21.5581 18.5548 21.6698C18.4593 21.7815 18.3404 21.8708 18.2065 21.9313C18.0725 21.9919 17.9269 22.0221 17.78 22.02L17.87 22ZM12 17C12.163 17.002 12.323 17.04 12.47 17.11L16.54 19.26L15.76 14.72C15.7321 14.5592 15.7439 14.3941 15.7944 14.239C15.845 14.0838 15.9327 13.9434 16.05 13.83L19.35 10.62L14.79 9.9C14.6237 9.88319 14.4642 9.82496 14.3262 9.73063C14.1882 9.63629 14.0761 9.50886 14 9.36L12 5.22L10 9.36C9.92766 9.5037 9.8217 9.62783 9.69113 9.72184C9.56057 9.81584 9.40924 9.87696 9.25001 9.9L4.69001 10.57L8.00001 13.78C8.11729 13.8934 8.20503 14.0338 8.25558 14.189C8.30612 14.3441 8.31795 14.5092 8.29001 14.67L7.51001 19.21L11.58 17.06C11.7149 17.0134 11.8575 16.9931 12 17Z" fill="white"/>
</svg>
