<svg width="20" height="20" viewBox="0 0 20 20" fill="none" xmlns="http://www.w3.org/2000/svg">
<path d="M14.8917 18.3333C14.7574 18.3338 14.6253 18.2993 14.5083 18.2333L10 15.9L5.49167 18.2667C5.3592 18.3299 5.21237 18.3571 5.06604 18.3454C4.9197 18.3337 4.77906 18.2835 4.65834 18.2C4.52905 18.1074 4.42896 17.9797 4.3699 17.832C4.31083 17.6844 4.29525 17.5229 4.325 17.3667L5.15834 12.3667L1.5 8.81667C1.38995 8.70764 1.31247 8.57009 1.27626 8.41946C1.24005 8.26883 1.24654 8.11109 1.29501 7.96395C1.34348 7.81681 1.43201 7.68609 1.55065 7.58647C1.6693 7.48686 1.81336 7.42228 1.96667 7.40001L7 6.66667L9.25 2.10001C9.31824 1.95911 9.42478 1.84029 9.55743 1.75715C9.69007 1.67401 9.84346 1.62991 10 1.62991C10.1566 1.62991 10.3099 1.67401 10.4426 1.75715C10.5752 1.84029 10.6818 1.95911 10.75 2.10001L13 6.66667L18 7.40001C18.1533 7.42228 18.2974 7.48686 18.416 7.58647C18.5347 7.68609 18.6232 7.81681 18.6717 7.96395C18.7201 8.11109 18.7266 8.26883 18.6904 8.41946C18.6542 8.57009 18.5767 8.70764 18.4667 8.81667L14.8167 12.375L15.65 17.375C15.6708 17.4957 15.6648 17.6195 15.6324 17.7375C15.5999 17.8556 15.5419 17.9651 15.4623 18.0582C15.3827 18.1513 15.2836 18.2257 15.172 18.2761C15.0604 18.3266 14.9391 18.3518 14.8167 18.35L14.8917 18.3333ZM10 14.1667C10.1358 14.1683 10.2692 14.2 10.3917 14.2583L13.7833 16.05L13.1333 12.2667C13.1101 12.1327 13.1199 11.9951 13.162 11.8658C13.2042 11.7365 13.2773 11.6195 13.375 11.525L16.125 8.85L12.325 8.25C12.1864 8.236 12.0535 8.18747 11.9385 8.10886C11.8235 8.03025 11.73 7.92406 11.6667 7.8L10 4.35L8.33334 7.8C8.27304 7.91976 8.18475 8.0232 8.07594 8.10154C7.96713 8.17988 7.84103 8.23081 7.70834 8.25L3.90834 8.80834L6.66667 11.4833C6.7644 11.5779 6.83752 11.6949 6.87964 11.8241C6.92176 11.9534 6.93162 12.091 6.90834 12.225L6.25834 16.0083L9.65 14.2167C9.76242 14.1779 9.88122 14.1609 10 14.1667Z" fill="white"/>
</svg>
