<svg width="20" height="20" viewBox="0 0 20 20" xmlns="http://www.w3.org/2000/svg">
<path d="M13.3333 1.66666C13.508 1.66621 13.6784 1.72068 13.8205 1.82236C13.9626 1.92405 14.0691 2.06781 14.125 2.23333L14.7666 4.16666H16.6666C17.3297 4.16666 17.9656 4.43005 18.4344 4.89889C18.9033 5.36773 19.1666 6.00362 19.1666 6.66666V15.8333C19.1666 16.4964 18.9033 17.1323 18.4344 17.6011C17.9656 18.0699 17.3297 18.3333 16.6666 18.3333H3.33331C2.67027 18.3333 2.03439 18.0699 1.56555 17.6011C1.09671 17.1323 0.833313 16.4964 0.833313 15.8333V6.66666C0.833313 6.00362 1.09671 5.36773 1.56555 4.89889C2.03439 4.43005 2.67027 4.16666 3.33331 4.16666H5.23331L5.87498 2.23333C5.93088 2.06781 6.03739 1.92405 6.17946 1.82236C6.32152 1.72068 6.49194 1.66621 6.66665 1.66666H13.3333ZM12.7333 3.33333H7.26665L6.66665 5.26666C6.60866 5.43914 6.49582 5.58791 6.34534 5.69023C6.19487 5.79255 6.01504 5.84281 5.83331 5.83333H3.33331C3.1123 5.83333 2.90034 5.92112 2.74406 6.0774C2.58778 6.23368 2.49998 6.44565 2.49998 6.66666V15.8333C2.49998 16.0543 2.58778 16.2663 2.74406 16.4226C2.90034 16.5789 3.1123 16.6667 3.33331 16.6667H16.6666C16.8877 16.6667 17.0996 16.5789 17.2559 16.4226C17.4122 16.2663 17.5 16.0543 17.5 15.8333V6.66666C17.5 6.44565 17.4122 6.23368 17.2559 6.0774C17.0996 5.92112 16.8877 5.83333 16.6666 5.83333H14.1666C13.9919 5.83378 13.8215 5.77931 13.6795 5.67762C13.5374 5.57594 13.4309 5.43218 13.375 5.26666L12.7333 3.33333ZM9.99998 6.24999C11.2156 6.24999 12.3813 6.73288 13.2409 7.59242C14.1004 8.45196 14.5833 9.61775 14.5833 10.8333C14.5811 12.0482 14.0975 13.2127 13.2385 14.0718C12.3794 14.9309 11.2149 15.4145 9.99998 15.4167C8.7844 15.4167 7.61862 14.9338 6.75907 14.0742C5.89953 13.2147 5.41665 12.0489 5.41665 10.8333C5.41665 9.61775 5.89953 8.45196 6.75907 7.59242C7.61862 6.73288 8.7844 6.24999 9.99998 6.24999ZM9.99998 7.91666C9.22643 7.91666 8.48457 8.22395 7.93759 8.77093C7.3906 9.31791 7.08331 10.0598 7.08331 10.8333C7.08331 11.6069 7.3906 12.3487 7.93759 12.8957C8.48457 13.4427 9.22643 13.75 9.99998 13.75C10.7735 13.75 11.5154 13.4427 12.0624 12.8957C12.6094 12.3487 12.9166 11.6069 12.9166 10.8333C12.9166 10.0598 12.6094 9.31791 12.0624 8.77093C11.5154 8.22395 10.7735 7.91666 9.99998 7.91666Z" fill="black"/>
</svg>
