<svg width="20" height="21" viewBox="0 0 20 21" fill="none" xmlns="http://www.w3.org/2000/svg">
<path d="M4.6875 3.625C3.47938 3.625 2.5 4.60438 2.5 5.8125C2.5 7.02062 3.47938 8 4.6875 8H15.3125C16.5206 8 17.5 7.02062 17.5 5.8125C17.5 4.60438 16.5206 3.625 15.3125 3.625H4.6875Z" fill="#0F172A"/>
<path d="M3.125 9.875C2.77982 9.875 2.5 10.1548 2.5 10.5C2.5 10.8452 2.77982 11.125 3.125 11.125H16.875C17.2202 11.125 17.5 10.8452 17.5 10.5C17.5 10.1548 17.2202 9.875 16.875 9.875H3.125Z" fill="#0F172A"/>
<path d="M2.5 13.625C2.5 13.2798 2.77982 13 3.125 13H16.875C17.2202 13 17.5 13.2798 17.5 13.625C17.5 13.9702 17.2202 14.25 16.875 14.25H3.125C2.77982 14.25 2.5 13.9702 2.5 13.625Z" fill="#0F172A"/>
<path d="M3.125 16.125C2.77982 16.125 2.5 16.4048 2.5 16.75C2.5 17.0952 2.77982 17.375 3.125 17.375H16.875C17.2202 17.375 17.5 17.0952 17.5 16.75C17.5 16.4048 17.2202 16.125 16.875 16.125H3.125Z" fill="#0F172A"/>
</svg>
